<svg width="30" height="30" viewBox="0 0 18 18" fill="none" xmlns="http://www.w3.org/2000/svg">
<path d="M8.75 6.91641C8.33794 6.91656 7.93517 7.03889 7.59263 7.26793C7.25009 7.49698 6.98315 7.82244 6.82557 8.20318C6.66799 8.58392 6.62683 9.00284 6.70732 9.40697C6.7878 9.81109 6.98631 10.1823 7.27773 10.4736C7.56916 10.7649 7.94042 10.9633 8.34458 11.0436C8.74874 11.1239 9.16764 11.0826 9.54832 10.9249C9.929 10.7672 10.2544 10.5001 10.4833 10.1575C10.7122 9.81487 10.8344 9.41206 10.8344 9C10.834 8.44739 10.6142 7.91754 10.2234 7.52686C9.83254 7.13618 9.30261 6.91661 8.75 6.91641V6.91641ZM13.6215 5.31484C13.5154 5.04603 13.3552 4.80188 13.1509 4.59754C12.9466 4.3932 12.7024 4.23302 12.4336 4.12695C11.6133 3.80313 9.66016 3.87578 8.75 3.87578C7.83984 3.87578 5.88867 3.80039 5.06602 4.12695C4.7972 4.23302 4.55305 4.3932 4.34871 4.59754C4.14437 4.80188 3.9842 5.04603 3.87812 5.31484C3.55469 6.13516 3.62695 8.09023 3.62695 8.99961C3.62695 9.90898 3.55469 11.8617 3.87969 12.6848C3.98576 12.9536 4.14593 13.1977 4.35028 13.4021C4.55462 13.6064 4.79877 13.7666 5.06758 13.8727C5.88789 14.1965 7.84102 14.1238 8.75156 14.1238C9.66211 14.1238 11.6125 14.1992 12.4352 13.8727C12.704 13.7666 12.9481 13.6064 13.1525 13.4021C13.3568 13.1977 13.517 12.9536 13.623 12.6848C13.9492 11.8645 13.8742 9.90938 13.8742 9C13.8742 8.09062 13.9492 6.13828 13.623 5.31523L13.6215 5.31484ZM8.75 12.2031C8.11648 12.2031 7.49719 12.0153 6.97044 11.6633C6.44369 11.3113 6.03314 10.8111 5.7907 10.2258C5.54826 9.64049 5.48483 8.99645 5.60842 8.3751C5.73202 7.75376 6.03708 7.18301 6.48505 6.73505C6.93301 6.28708 7.50376 5.98202 8.1251 5.85842C8.74645 5.73483 9.39049 5.79826 9.97578 6.0407C10.5611 6.28314 11.0613 6.69369 11.4133 7.22044C11.7653 7.74719 11.9531 8.36648 11.9531 9C11.9536 9.42078 11.8711 9.83754 11.7103 10.2264C11.5496 10.6152 11.3136 10.9686 11.0161 11.2661C10.7186 11.5636 10.3652 11.7996 9.97639 11.9603C9.58754 12.1211 9.17078 12.2036 8.75 12.2031V12.2031ZM12.0852 6.41016C11.9373 6.41023 11.7927 6.36645 11.6697 6.28434C11.5467 6.20224 11.4508 6.0855 11.3941 5.94889C11.3375 5.81228 11.3226 5.66194 11.3514 5.51688C11.3802 5.37182 11.4514 5.23857 11.556 5.13397C11.6605 5.02936 11.7937 4.95812 11.9388 4.92924C12.0838 4.90036 12.2342 4.91514 12.3708 4.97172C12.5074 5.0283 12.6242 5.12412 12.7064 5.24708C12.7886 5.37004 12.8324 5.51461 12.8324 5.6625C12.8328 5.76071 12.8139 5.85803 12.7766 5.94889C12.7393 6.03974 12.6844 6.12234 12.6151 6.19195C12.5459 6.26156 12.4635 6.3168 12.3728 6.35452C12.2822 6.39223 12.1849 6.41167 12.0867 6.41172L12.0852 6.41016ZM15.625 0.25H1.875C1.37772 0.25 0.900805 0.447544 0.549175 0.799175C0.197544 1.15081 0 1.62772 0 2.125L0 15.875C0 16.3723 0.197544 16.8492 0.549175 17.2008C0.900805 17.5525 1.37772 17.75 1.875 17.75H15.625C16.1223 17.75 16.5992 17.5525 16.9508 17.2008C17.3025 16.8492 17.5 16.3723 17.5 15.875V2.125C17.5 1.62772 17.3025 1.15081 16.9508 0.799175C16.5992 0.447544 16.1223 0.25 15.625 0.25V0.25ZM14.9563 11.5781C14.9059 12.5793 14.6773 13.4664 13.9465 14.1953C13.2156 14.9242 12.3293 15.1574 11.3293 15.2051C10.2977 15.2633 7.20469 15.2633 6.17305 15.2051C5.17187 15.1547 4.28789 14.9258 3.55586 14.1953C2.82383 13.4648 2.59375 12.5773 2.54609 11.5781C2.48789 10.5461 2.48789 7.45273 2.54609 6.42188C2.59648 5.4207 2.82227 4.53359 3.55586 3.80469C4.28945 3.07578 5.17578 2.84531 6.17305 2.79766C7.20469 2.73945 10.2977 2.73945 11.3293 2.79766C12.3305 2.84805 13.2172 3.07695 13.9465 3.80742C14.6758 4.53789 14.9086 5.42539 14.9563 6.42656C15.0145 7.45469 15.0145 10.5453 14.9563 11.5781Z" fill="#AF6645"/>
</svg>
