<svg width="20" height="20" viewBox="0 0 20 20" fill="none" xmlns="http://www.w3.org/2000/svg">
<path d="M10 7.39649C8.56641 7.39649 7.39649 8.56641 7.39649 10C7.39649 11.4336 8.56641 12.6035 10 12.6035C11.4336 12.6035 12.6035 11.4336 12.6035 10C12.6035 8.56641 11.4336 7.39649 10 7.39649ZM17.8086 10C17.8086 8.92188 17.8184 7.85352 17.7578 6.77734C17.6973 5.52734 17.4121 4.41797 16.498 3.50391C15.582 2.58789 14.4746 2.30469 13.2246 2.24414C12.1465 2.18359 11.0781 2.19336 10.002 2.19336C8.92383 2.19336 7.85547 2.18359 6.7793 2.24414C5.5293 2.30469 4.41992 2.58984 3.50586 3.50391C2.58984 4.41992 2.30664 5.52734 2.24609 6.77734C2.18555 7.85547 2.19531 8.92383 2.19531 10C2.19531 11.0762 2.18555 12.1465 2.24609 13.2227C2.30664 14.4727 2.5918 15.582 3.50586 16.4961C4.42188 17.4121 5.5293 17.6953 6.7793 17.7559C7.85742 17.8164 8.92578 17.8066 10.002 17.8066C11.0801 17.8066 12.1484 17.8164 13.2246 17.7559C14.4746 17.6953 15.584 17.4102 16.498 16.4961C17.4141 15.5801 17.6973 14.4727 17.7578 13.2227C17.8203 12.1465 17.8086 11.0781 17.8086 10V10ZM10 14.0059C7.7832 14.0059 5.99414 12.2168 5.99414 10C5.99414 7.7832 7.7832 5.99414 10 5.99414C12.2168 5.99414 14.0059 7.7832 14.0059 10C14.0059 12.2168 12.2168 14.0059 10 14.0059ZM14.1699 6.76563C13.6523 6.76563 13.2344 6.34766 13.2344 5.83008C13.2344 5.3125 13.6523 4.89453 14.1699 4.89453C14.6875 4.89453 15.1055 5.3125 15.1055 5.83008C15.1056 5.95298 15.0815 6.0747 15.0346 6.18828C14.9876 6.30186 14.9187 6.40505 14.8318 6.49195C14.7449 6.57886 14.6417 6.64777 14.5281 6.69473C14.4145 6.74169 14.2928 6.76578 14.1699 6.76563V6.76563Z" fill="#F7ECEB"/>
</svg>
